<svg width="0" heigth="0">
	<defs>
		<symbol viewbox = "0 0 379.999 379.999" id = "cwkeyword-search" > 
		<g>
			<g>
				<g>
					<path d="M179.099,94.233c-8.055,0-15.489,4.167-20.932,11.734c-3.621,5.034-6.055,11.219-7.124,17.907H69.44     c-4.312,0-7.806,3.495-7.806,7.806c0,4.239,3.383,7.684,7.597,7.793v21.086c0,4.311,3.495,7.805,7.805,7.805     c4.312,0.001,7.805-3.495,7.805-7.806v-21.073h10.408l-0.001,21.074c0.001,4.311,3.495,7.806,7.807,7.806     c4.311,0,7.806-3.496,7.806-7.807v-21.073h40.184c1.071,6.688,3.503,12.872,7.124,17.907     c5.441,7.567,12.876,11.735,20.932,11.734c8.057,0,15.489-4.167,20.93-11.734c5-6.947,7.75-16.079,7.75-25.713     c0-9.634-2.752-18.766-7.75-25.713C194.588,98.4,187.155,94.232,179.099,94.233z M179.099,154.526     c-8.036,0-14.828-10.463-14.828-22.847c0-12.381,6.79-22.845,14.828-22.845c8.041,0,14.831,10.464,14.829,22.846     C193.928,144.063,187.139,154.526,179.099,154.526z" fill="#b47ad6"/>
					<path d="M368.088,310.574l-66.061-66.062c-7.292-7.289-16.664-11.221-26.202-11.82l-22.438-22.438     c33.337-53,26.958-124.013-19.145-170.118c-53.516-53.516-140.592-53.515-194.106,0c-53.515,53.515-53.515,140.591,0.001,194.106     c46.103,46.104,117.114,52.48,170.116,19.146l22.438,22.438c0.601,9.541,4.532,18.91,11.82,26.199l66.063,66.062     c15.883,15.883,41.632,15.881,57.514,0C383.968,352.209,383.971,326.459,368.088,310.574z M205.482,205.484     c-37.656,37.658-98.933,37.658-136.589,0c-37.661-37.66-37.66-98.935-0.001-136.593c37.656-37.659,98.93-37.659,136.59,0.002     C243.141,106.553,243.142,167.827,205.482,205.484z" fill="#b47ad6"/>
				</g>
			</g>
		</g>
		<g>
		</g>
		<g>
		</g>
		<g>
		</g>
		<g>
		</g>
		<g>
		</g>
		<g>
		</g>
		<g>
		</g>
		<g>
		</g>
		<g>
		</g>
		<g>
		</g>
		<g>
		</g>
		<g>
		</g>
		<g>
		</g>
		<g>
		</g>
		<g>
		</g>
		</symbol>
		<symbol viewbox = "0 0 485.216 485.216" id = "cwmagnifier-tool-on-earth-globe" > 
		<g>
			<g>
				<path d="M474.108,420.504l-91.807-91.839c-14.747,20.731-32.87,38.858-53.605,53.635l91.806,91.806    c14.813,14.813,38.793,14.813,53.606,0C488.917,459.302,488.917,435.312,474.108,420.504z" fill="#91DC5A"/>
				<path d="M394.236,197.119C394.236,88.255,305.981,0,197.117,0C88.255,0,0.001,88.255,0.001,197.119    s88.254,197.114,197.116,197.114C305.981,394.233,394.236,305.983,394.236,197.119z M220.101,291.534    c-1.984,10.981-1.214,22.593-5.538,33.108c-3.556,7.107,0.073,15.546-2.606,22.598c-4.958,0.499-9.759,1.508-14.839,1.508    c-83.604,0-151.626-68.027-151.626-151.629c0-32.875,10.781-63.108,28.621-87.986c-0.518,2.1-1.05,4.203-1.094,6.396    c-0.521,8.274,0.917,17.235,6.531,23.662c2.856,3.747,7.908,4.886,10.587,8.839c3.433,4.8,10.352,4.812,13.726,9.698    c3.05,4.175,6.396,8.146,9.565,12.249c2.31,2.87,2.875,7.208,6.44,8.942c8.102,4.116,18.039,2.961,25.72,8.13    c13.357,7.803,26.243,16.762,40.737,22.39c4.991,2.324,12.424-0.327,15.59,5.253c2.387,6.606-5.33,10.529-6.424,16.423    c-0.842,3.733,0.679,8.142-2.161,11.225c2.989,7.399,7.906,13.831,12.272,20.43c3.631,5.302,10.058,7.705,13.861,12.797    C222.054,280.454,220.604,286.288,220.101,291.534z M231.236,344.538c2.028-4.116,3.704-8.405,6.604-12.022    c1.54-1.745,0.947-5.181,3.82-5.68c4.175-0.92,9.829-0.477,11.546-5.423c-0.621-0.621-1.186-1.274-1.745-1.862    c2.608-0.065,5.185-0.299,7.789-0.271c5.899-7.668,12.886-14.57,17.119-23.34c2.455-4.615,8.531-4.672,11.729-8.494    c2.692-2.931,5.866-5.656,7.695-9.273c1.251-5.12-0.62-11.131,2.969-15.578c3.463-3.995,8.111-7.458,9.03-12.998    c1.032-3.379-1.129-6.723-4.148-8.086c-9.979-5.036-22.122-4.056-31.508-10.543c-2.875-2.606-1.871-7.208-4.359-10.13    c-3.257-4.308-8.938-5.047-13.739-6.56c-3.906-1.02-6.66-4.161-10.247-5.834c-8.707-4.335-18.51-6.515-28.224-5.967    c-3.818,0.166-7.757,1.631-9.743,5.11c-1.006,2.072-3.388,0.712-4.898,0.103c-7.775-3.834-16.214-7.787-20.969-15.429    c-0.99-1.879-2.961-2.726-4.765-3.584c0.931-4.189,4.737-7.372,4.352-11.89c-4.933-1.659-9.908,0.964-14.881,0.383    c-3.066-0.458-2.728-4.233-3.038-6.543c-0.606-4.576,0.432-9.742,4.501-12.482c5.02-3.643,11.729-7.537,18.022-4.826    c5.302,2.264,5.407,9.388,10.396,11.99c2.947-4.987-0.829-10.51-0.875-15.737c2.873-4.235,7.598-6.515,11.257-9.922    c2.679-2.072-1.141-5.538,1.153-7.803c4.487-6.13,9.183-12.571,15.919-16.377c4.485-2.618,9.743-0.31,14.601-0.681    c3.792-1.244,5.833-5.167,9.299-6.945c5.092-3.003,11.225-2.471,16.792-1.524c-1.866-3.715-3.463-9.504-8.265-9.997    c-3.823,1.407-4.798,6.665-8.976,7.88c-3.937,2.294-7.787-0.919-10.363-3.704c-4.592,1.883-9.285,3.659-14.186,4.579    c10.069-4.459,21.114-6.459,30.943-11.477c1.451-0.861,4.06-2.224,2.818-4.249c-3.085-5.657-9.772-8.13-12.914-13.773    c-2.044-2.961-2.31-7.019-5.062-9.432c-3.941-1.717-8.025,2.324-11.994,0.521c-4.947-2.401-8.396-7.451-13.98-8.59    c-3.08-0.698-7.12-1.468-9.521,1.111c-1.689,5.433,2.28,10.557,2.518,15.917c-2.177,4.205-3.376,8.751-4.844,13.222    c-0.917,3.199-4.411,4.578-7.477,3.869c-0.147-3.11,1.659-7.747-2.236-9.227c-7.374-2.978-15.058-5.274-22.285-8.574    c-4.756-1.645-9.565-6.958-6.025-11.966c4.562-6.13,11.906-9.136,17.709-13.8c0.518-0.399,0.961-0.931,1.438-1.407    c5.698-0.651,11.266-1.731,17.128-1.731c3.72,0,7.197,0.831,10.855,1.097c-1.972,1.094-3.953,2.175-5.687,3.626    c2.873,1.438,6.144,0.858,9.225,1.333c7.33,0.371,11.966,8.055,19.31,8.127c1.513-3.731-4.531-2.975-5.196-6.025    c2.856-0.311,6.027,1.064,8.629-0.43c0.267-1.407-0.324-2.235-1.122-2.933c9.402,2.312,18.461,5.407,27.095,9.388    c-0.023,0.712,0.047,1.421-0.5,2.18c-1.866,3.643-8.592,2.175-8.736,6.765c2.604,6.679,7.762,12.232,13.176,16.837    c3.733,2.756,9.623,5.376,13.684,1.822c3.468-3.376,4.709-9.15,8.237-12.349c37.784,27.601,62.66,71.92,62.66,122.191    C348.746,268.95,298.407,328.964,231.236,344.538z" fill="#91DC5A"/>
			</g>
		</g>
		<g>
		</g>
		<g>
		</g>
		<g>
		</g>
		<g>
		</g>
		<g>
		</g>
		<g>
		</g>
		<g>
		</g>
		<g>
		</g>
		<g>
		</g>
		<g>
		</g>
		<g>
		</g>
		<g>
		</g>
		<g>
		</g>
		<g>
		</g>
		<g>
		</g>
		</symbol>
		<symbol viewbox = "0 0 535.579 535.579" id = "cwprofile" > 
		<g>
			<g>
				<g>
					<path d="M368.288,529.163c0,0,69.858-5.228,104.788-63.442c34.929-58.216-69.858-204.347-69.858-204.347     s-58.215,63.442-139.715,58.215c-81.5-5.228-116.431-58.215-116.431-58.215S18.997,377.804,65.57,470.948     S368.288,529.163,368.288,529.163z" fill="#006DF0"/>
					<circle cx="275.791" cy="150.712" r="150.712" fill="#006DF0"/>
				</g>
			</g>
			<g>
			</g>
			<g>
			</g>
			<g>
			</g>
			<g>
			</g>
			<g>
			</g>
			<g>
			</g>
			<g>
			</g>
			<g>
			</g>
			<g>
			</g>
			<g>
			</g>
			<g>
			</g>
			<g>
			</g>
			<g>
			</g>
			<g>
			</g>
			<g>
			</g>
		</g>
		<g>
		</g>
		<g>
		</g>
		<g>
		</g>
		<g>
		</g>
		<g>
		</g>
		<g>
		</g>
		<g>
		</g>
		<g>
		</g>
		<g>
		</g>
		<g>
		</g>
		<g>
		</g>
		<g>
		</g>
		<g>
		</g>
		<g>
		</g>
		<g>
		</g>
		</symbol>
		<symbol viewbox = "0 0 920.828 920.828" id = "cwcaduceus-blue" > 
		<g>
			<g>
				<path d="M401.867,239.564v-42.1c-34.399-33.4-57.699-77.8-97.1-105.9c-44.8-31.9-99.8-43.4-153.8-35.4    c-46.4,6.9-98.7,17.9-144.2,1.2c-4.1-1.5-8,2.5-6.4,6.5c13.8,34.9,68.7,141.6,220,153.3    C332.567,225.864,377.867,232.164,401.867,239.564z" fill="#3293d9"/>
				<path d="M913.968,57.464c-45.5,16.7-97.8,5.7-144.2-1.2c-54-8-109,3.5-153.8,35.4c-39.4,28-62.7,72.4-97.101,105.9v42.1    c24-7.4,69.301-13.8,181.5-22.5c151.2-11.7,206.101-118.4,220.101-153.2C922.067,59.964,918.067,55.964,913.968,57.464z" fill="#3293d9"/>
				<path d="M419.367,157.564c5.101,4.7,11,8.6,17.5,11.3v208.4l-17.5-8.3l-17.5-8.3l-79.899-37.7h57.399c10,0,18.5-6.5,21.5-15.5    c0.801-2.3,1.2-4.7,1.2-7.2v-22.4c0-2.5-0.399-5-1.2-7.2c-3-9-11.5-15.5-21.5-15.5h-98c-12.6,0-22.7,10.2-22.7,22.7v75.2    c0,9,5.3,17.101,13.4,20.7l110.7,49.8l-68.3,40.8c-6.9,4.101-11.101,11.5-11.101,19.5v10.4c0,8.8,5.101,16.8,13.101,20.6    l71.5,33.601l-46.7,26.1c-7.2,4-11.6,11.601-11.6,19.8v10.9c0,8.7,5,16.7,12.8,20.5l49.3,23.9l-44.7,31    c-6.1,4.199-9.8,11.199-9.8,18.699v14.4c0,9.2,5.6,17.5,14.1,21l41.601,17.2l-17.2,17.1c-4.3,4.3-6.7,10-6.7,16.101l0,0    c0,9,5.3,17.1,13.4,20.699l3.8,1.7c4.9,2.2,10.4,2.601,15.5,1.101c1.3-0.4,2.6-0.9,3.9-1.5l13.6-6.801l17.5-8.699v54.1    c0,12.2,9.8,22,22,22h2.9c12.199,0,22-9.8,22-22v-53.9l17.5,8.7l13.6,6.7c1.2,0.6,2.5,1.1,3.9,1.5c5.1,1.5,10.6,1.1,15.5-1.1    l3.8-1.7c8.2-3.7,13.399-11.8,13.399-20.7l0,0c0-6-2.399-11.8-6.699-16.1l-16.9-17.2l41.6-17.2c8.5-3.5,14.101-11.8,14.101-21    v-14.5c0-7.5-3.601-14.4-9.8-18.7l-44.7-31l49.3-23.899c7.8-3.801,12.8-11.7,12.8-20.5v-10.9c0-8.2-4.399-15.8-11.6-19.8l-46.7-26    l71.5-33.601c8-3.699,13.1-11.8,13.1-20.6v-10.4c0-8-4.199-15.399-11.1-19.5l-68.3-40.8l110.8-49.7    c8.2-3.699,13.4-11.8,13.4-20.699v-75.2c0-12.6-10.2-22.7-22.7-22.7l-97.9-0.3c-10,0-18.5,6.5-21.5,15.5c-0.8,2.3-1.2,4.7-1.2,7.3    v22.4c0,2.5,0.4,5,1.2,7.3c3,9,11.5,15.5,21.5,15.5l57.2,0.3l-80,37.5l-17.5,8.3l-17.5,8.3v-208.5c6.5-2.8,12.4-6.6,17.5-11.3    c8.4-7.8,14.6-18.1,17.5-29.6c1.2-4.7,1.8-9.5,1.8-14.6c0-5-0.6-9.9-1.8-14.6c-1.5-5.9-3.8-11.5-6.9-16.6    c-10.6-17.4-29.699-29.1-51.6-29.1s-41,11.6-51.6,29.1c-3.101,5.1-5.4,10.7-6.9,16.6c-1.2,4.7-1.8,9.5-1.8,14.6    c0,5,0.6,9.9,1.8,14.6C404.768,139.464,410.968,149.664,419.367,157.564z M436.867,618.364l-35.199-18.8l35.199-18.8V618.364z     M387.867,487.165l49-24.801v49.601L387.867,487.165z M401.668,701.964l35.199-18.8v37.6L401.668,701.964z M483.768,720.764v-37.5    l35.2,18.8L483.768,720.764z M483.768,618.364v-37.5l35.2,18.801L483.768,618.364z M532.768,487.165l-49,24.8v-49.601    L532.768,487.165z" fill="#3293d9"/>
			</g>
		</g>
		<g>
		</g>
		<g>
		</g>
		<g>
		</g>
		<g>
		</g>
		<g>
		</g>
		<g>
		</g>
		<g>
		</g>
		<g>
		</g>
		<g>
		</g>
		<g>
		</g>
		<g>
		</g>
		<g>
		</g>
		<g>
		</g>
		<g>
		</g>
		<g>
		</g>
		</symbol>
		<symbol viewbox = "0 0 50 50" id = "cwarrow" > <rect fill="none" height="50" width="50"/><polygon points="15,2.75 12.914,4.836 33.078,25 12.914,45.164 15,47.25 37.25,25 "/>
		</symbol>
		<symbol viewbox = "0 0 297.23 297.23" id = "cwCommunity" > 
		  <g>
		    <path d="m149.416,61.02c14.139,0 25.642-11.503 25.642-25.642 0-14.139-11.503-25.642-25.642-25.642s-25.642,11.503-25.642,25.642c0,14.139 11.503,25.642 25.642,25.642z" fill="#f0a505"/>
		    <path d="m108.813,139.678h80.845c5.265,0 9.533-4.268 9.533-9.533v-35.25c0-9.758-6.271-18.41-15.544-21.448l-.043-.014-13.563-2.246c-1.154-0.355-2.388,0.256-2.803,1.395l-15.389,42.224c-0.888,2.436-4.333,2.436-5.221,0l-15.389-42.224c-0.335-0.92-1.203-1.496-2.133-1.496-0.22,0-0.445,0.033-0.667,0.101l-13.566,2.243c-9.349,3.115-15.595,11.782-15.595,21.582v35.133c0.002,5.265 4.27,9.533 9.535,9.533z" fill="#f0a505"/>
		    <path d="m50.188,208.836c14.139,0 25.642-11.503 25.642-25.642s-11.503-25.642-25.642-25.642c-14.139,0-25.642,11.503-25.642,25.642s11.503,25.642 25.642,25.642z" fill="#f0a505"/>
		    <path d="m84.368,221.262l-.043-.014-13.563-2.246c-1.154-0.355-2.388,0.256-2.803,1.395l-15.389,42.224c-0.888,2.436-4.333,2.436-5.221,0l-15.389-42.224c-0.335-0.92-1.203-1.496-2.133-1.496-0.22,0-0.445,0.033-0.667,0.101l-13.566,2.243c-9.348,3.115-15.594,11.782-15.594,21.582v35.133c0,5.265 4.268,9.533 9.533,9.533h80.845c5.265,0 9.533-4.268 9.533-9.533v-35.25c0-9.757-6.27-18.41-15.543-21.448z" fill="#f0a505"/>
		    <path d="m247.277,208.836c14.139,0 25.642-11.503 25.642-25.642s-11.503-25.642-25.642-25.642c-14.139,0-25.642,11.503-25.642,25.642s11.502,25.642 25.642,25.642z" fill="#f0a505"/>
		    <path d="m281.686,221.262l-.043-.014-13.563-2.246c-1.154-0.355-2.388,0.256-2.803,1.395l-15.389,42.224c-0.888,2.436-4.333,2.436-5.221,0l-15.389-42.224c-0.335-0.92-1.203-1.496-2.133-1.496-0.22,0-0.445,0.033-0.667,0.101l-13.566,2.243c-9.349,3.115-15.595,11.782-15.595,21.582v35.133c0,5.265 4.268,9.533 9.533,9.533h80.845c5.265,0 9.533-4.268 9.533-9.533v-35.25c0.002-9.757-6.269-18.41-15.542-21.448z" fill="#f0a505"/>
		    <path d="m157.872,146.894h-16.922v38.55l-39.834,39.834c3.606,4.936 5.679,10.989 5.679,17.431v0.822l42.616-42.617 40.975,40.976c0.205-6.527 2.528-12.62 6.417-17.515l-38.931-38.931v-38.55z" fill="#f0a505"/>
		    <path d="m155.539,71.055c-0.667-0.726-1.641-1.092-2.627-1.092h-7.353c-0.986,0-1.96,0.365-2.627,1.092-1.032,1.124-1.182,2.748-0.449,4.018l3.93,5.925-1.84,15.522 3.623,9.638c0.353,0.969 1.724,0.969 2.078,0l3.623-9.638-1.84-15.522 3.93-5.925c0.733-1.27 0.584-2.894-0.448-4.018z" fill="#f0a505"/>
		    <path d="m56.259,218.901c-0.667-0.726-1.641-1.092-2.627-1.092h-7.353c-0.986,0-1.96,0.365-2.627,1.092-1.032,1.124-1.182,2.748-0.449,4.018l3.93,5.925-1.84,15.521 3.623,9.638c0.353,0.969 1.724,0.969 2.077,0l3.623-9.638-1.84-15.521 3.93-5.925c0.734-1.269 0.585-2.893-0.447-4.018z" fill="#f0a505"/>
		    <path d="m253.577,218.901c-0.667-0.726-1.641-1.092-2.627-1.092h-7.353c-0.986,0-1.96,0.365-2.627,1.092-1.032,1.124-1.182,2.748-0.449,4.018l3.93,5.925-1.84,15.521 3.623,9.638c0.353,0.969 1.724,0.969 2.077,0l3.623-9.638-1.84-15.521 3.93-5.925c0.735-1.269 0.585-2.893-0.447-4.018z" fill="#f0a505"/>
		  </g>
		</symbol>
		<symbol viewbox = "0 0 791.803 791.803" id = "cwEducation" > 
		<g>
			<path d="M395.904,475.016l-236.203-72.7v71.524v49.896c0,56.133,105.787,101.644,236.274,101.644   c130.48,0,236.285-45.511,236.285-101.644c0-0.442-0.145-0.886-0.154-1.318V402.316L395.904,475.016z" fill="#808080"/>
			<path d="M0,318.734l84.383,30.185l7.191-15.401l31-2.635l4.42,4.599l-26.601,6.308l-3.877,11.475   c-0.007,0-60.087,125.604-51.263,187.05c0,0,37.502,22.37,74.988,0l9.962-168v-13.984l55.8-12.588l-3.941,9.705l-41.604,13.529   l19.242,6.874l236.203,72.7l236.201-72.7l159.699-57.116l-395.9-152.313L0,318.734z" fill="#808080"/>
		</g>
		<g>
		</g>
		<g>
		</g>
		<g>
		</g>
		<g>
		</g>
		<g>
		</g>
		<g>
		</g>
		<g>
		</g>
		<g>
		</g>
		<g>
		</g>
		<g>
		</g>
		<g>
		</g>
		<g>
		</g>
		<g>
		</g>
		<g>
		</g>
		<g>
		</g>
		</symbol>
	</defs>
</svg>
